<svg width="35" height="34" viewBox="0 0 35 34" fill="none" xmlns="http://www.w3.org/2000/svg">
<g clip-path="url(#clip0_1545_1375)">
<path d="M13.2283 16.5278C13.2283 17.5716 12.8129 18.5712 12.0752 19.3087L6.71443 24.6685C6.6244 24.7585 6.53279 24.8438 6.43486 24.9227C6.20109 25.117 5.94679 25.2796 5.68144 25.4107C5.13178 25.6839 4.53157 25.8197 3.93294 25.8197C2.9268 25.8197 1.91908 25.436 1.15145 24.6669C-0.383817 23.1319 -0.383817 20.6415 1.15145 19.105L3.72918 16.5278L1.15145 13.949C-0.383817 12.414 -0.383817 9.9236 1.15145 8.38705C2.37556 7.16318 4.21093 6.91367 5.68144 7.64484C5.94995 7.77749 6.20583 7.94172 6.44276 8.13754C6.53595 8.2165 6.62756 8.29862 6.71443 8.38547L6.93082 8.60182L12.0752 13.7452C12.8144 14.4843 13.2283 15.4855 13.2283 16.5278Z" fill="#1F2937"/>
<path d="M13.2283 16.5278C13.2283 17.5716 12.8129 18.5712 12.0752 19.3087L6.71443 24.6685C6.6244 24.7585 6.53279 24.8438 6.43486 24.9227C6.20109 25.117 5.9468 25.2796 5.68144 25.4107C5.3071 25.2259 4.95803 24.978 4.64687 24.6669C3.11161 23.1319 3.11161 20.6415 4.64687 19.105L7.22461 16.5278L4.64845 13.949C3.11319 12.414 3.11319 9.9236 4.64845 8.38705C4.95961 8.07595 5.30868 7.8296 5.68144 7.64484C5.94995 7.77749 6.20583 7.94172 6.44276 8.13754C6.53595 8.2165 6.62756 8.29862 6.71443 8.38547L6.93082 8.60182L12.0752 13.7452C12.8144 14.4843 13.2283 15.4855 13.2283 16.5278Z" fill="#1F2937"/>
<path d="M35 16.5278C35 25.6413 27.5843 33.0555 18.469 33.0555H10.5795C8.50718 33.0555 6.80765 31.4527 6.65759 29.4171C6.64812 29.3208 6.64496 29.2229 6.64496 29.1218C6.64496 26.9504 8.40609 25.188 10.5795 25.188H18.4706C23.247 25.188 27.1341 21.3032 27.1341 16.5262C27.1341 11.7507 23.247 7.86435 18.4706 7.86435H10.5795C8.40767 7.86435 6.64496 6.10356 6.64496 3.9306C6.64496 3.83111 6.64812 3.73162 6.65759 3.63529C6.80765 1.60287 8.5056 0 10.5795 0H18.4706C27.5859 0 35 7.41428 35 16.5278Z" fill="#1F2937"/>
<path d="M6.93081 8.60503C6.75233 8.46922 6.58806 8.3113 6.44275 8.14075C6.53594 8.21971 6.62755 8.30182 6.71442 8.38868L6.93081 8.60503Z" fill="#1F2937"/>
<path d="M6.71445 24.6685C6.62441 24.7585 6.5328 24.8438 6.43488 24.9228C6.58493 24.7443 6.75551 24.5832 6.93873 24.4443L6.71445 24.6685Z" fill="#1F2937"/>
<path d="M29.347 16.5278C29.347 24.1442 23.1507 30.3378 15.5343 30.3378H8.93837C8.0507 30.3378 7.24832 29.9872 6.65601 29.4171C6.64653 29.3208 6.64337 29.2229 6.64337 29.1218C6.64337 26.9504 8.40451 25.1881 10.5779 25.1881H18.469C23.2454 25.1881 27.1326 21.3033 27.1326 16.5262C27.1326 11.7508 23.2454 7.86439 18.469 7.86439H10.5795C8.40767 7.86439 6.64495 6.1036 6.64495 3.93063C6.64495 3.83115 6.64811 3.73166 6.65759 3.63533C7.2499 3.06524 8.05228 2.71466 8.93995 2.71466H15.5343C23.1507 2.71782 29.347 8.91139 29.347 16.5278Z" fill="#1F2937"/>
</g>
<defs>
<clipPath id="clip0_1545_1375">
<rect width="35" height="33.0555" fill="white"/>
</clipPath>
</defs>
</svg>
