<svg width="20" height="19" viewBox="0 0 20 19" fill="none" xmlns="http://www.w3.org/2000/svg">
<path fill-rule="evenodd" clip-rule="evenodd" d="M1.5999 0.599976C0.937161 0.599976 0.399902 1.13723 0.399902 1.79998C0.399902 2.46272 0.937161 2.99998 1.5999 2.99998V12.6C1.5999 13.9255 2.67442 15 3.9999 15H7.10285L5.55137 16.5514C5.08275 17.0201 5.08275 17.7799 5.55137 18.2485C6.02 18.7171 6.7798 18.7171 7.24843 18.2485L9.9999 15.497L12.7514 18.2485C13.22 18.7171 13.9798 18.7171 14.4484 18.2485C14.9171 17.7799 14.9171 17.0201 14.4484 16.5514L12.897 15H15.9999C17.3254 15 18.3999 13.9255 18.3999 12.6V2.99998C19.0626 2.99998 19.5999 2.46272 19.5999 1.79998C19.5999 1.13723 19.0626 0.599976 18.3999 0.599976H1.5999ZM14.7999 5.39998C14.7999 4.73723 14.2626 4.19998 13.5999 4.19998C12.9372 4.19998 12.3999 4.73723 12.3999 5.39998V10.2C12.3999 10.8627 12.9372 11.4 13.5999 11.4C14.2626 11.4 14.7999 10.8627 14.7999 10.2V5.39998ZM11.1999 6.59998C11.1999 5.93723 10.6626 5.39998 9.9999 5.39998C9.33716 5.39998 8.7999 5.93723 8.7999 6.59998V10.2C8.7999 10.8627 9.33716 11.4 9.9999 11.4C10.6626 11.4 11.1999 10.8627 11.1999 10.2V6.59998ZM7.5999 7.79998C7.5999 7.13723 7.06264 6.59998 6.3999 6.59998C5.73716 6.59998 5.1999 7.13723 5.1999 7.79998V10.2C5.1999 10.8627 5.73716 11.4 6.3999 11.4C7.06264 11.4 7.5999 10.8627 7.5999 10.2V7.79998Z" fill="#6B7280"/>
</svg>
