<svg width="20" height="16" viewBox="0 0 20 16" fill="none" xmlns="http://www.w3.org/2000/svg">
<path fill-rule="evenodd" clip-rule="evenodd" d="M2.3999 0.800049C1.29533 0.800049 0.399902 1.69548 0.399902 2.80005V8.40005C0.399902 9.50462 1.29533 10.4 2.3999 10.4H2.79991V3.20005H14.7999V2.80005C14.7999 1.69548 13.9045 0.800049 12.7999 0.800049H2.3999ZM5.19991 7.60005C5.19991 6.49548 6.09534 5.60005 7.19991 5.60005H17.5999C18.7045 5.60005 19.5999 6.49548 19.5999 7.60005V13.2001C19.5999 14.3046 18.7045 15.2 17.5999 15.2H7.19991C6.09534 15.2 5.19991 14.3046 5.19991 13.2V7.60005ZM12.3999 12.8C13.7254 12.8 14.7999 11.7255 14.7999 10.4C14.7999 9.07456 13.7254 8.00005 12.3999 8.00005C11.0744 8.00005 9.99992 9.07456 9.99992 10.4C9.99992 11.7255 11.0744 12.8 12.3999 12.8Z" fill="#6B7280"/>
</svg>
